<svg xmlns="http://www.w3.org/2000/svg" width="24" height="24" viewBox="0 0 24 24">
    <defs>
        <filter id="9o0ongreda">
            <feColorMatrix in="SourceGraphic" values="0 0 0 0 0.286275 0 0 0 0 0.313725 0 0 0 0 0.341176 0 0 0 1.000000 0"/>
        </filter>
    </defs>
    <g fill="none" fill-rule="evenodd">
        <g>
            <g filter="url(#9o0ongreda)" transform="translate(-1092 -112) translate(1076 104)">
                <path d="M0 0H24V24H0z"/>
                <path fill="#84829E" d="M31.563 21.766l-2.788-2.091v-4.26c0-.429-.347-.775-.775-.775-.428 0-.775.346-.775.774v4.648c0 .244.115.474.31.62l3.099 2.323c.139.105.302.155.464.155.236 0 .468-.106.62-.31.257-.342.188-.828-.155-1.084zM28 10c5.514 0 10 4.486 10 10s-4.486 10-10 10-10-4.486-10-10 4.486-10 10-10z"/>
            </g>
        </g>
    </g>
</svg>
