<svg xmlns="http://www.w3.org/2000/svg" width="40" height="40" viewBox="0 0 40 40">
    <defs>
        <filter id="fpykbrbeca">
            <feColorMatrix in="SourceGraphic" values="0 0 0 0 0.098039 0 0 0 0 0.294118 0 0 0 0 0.941176 0 0 0 1.000000 0"/>
        </filter>
    </defs>
    <g fill="none" fill-rule="evenodd" filter="url(#fpykbrbeca)" transform="translate(-24 -24)">
        <g>
            <path d="M0 0H40V40H0z" transform="translate(24 24)"/>
            <path fill="#186EDB" d="M11.999 17.333c-1.778 0-3.057-1.706-2.56-3.413l1.338-4.587h3.888v5.334c0 1.472-1.194 2.666-2.666 2.666zm3.999.861c-.977 1.108-2.407 1.806-4 1.806v6h6.666v-.667c0-2.209 1.79-4 3.999-4 2.208 0 3.999 1.791 3.999 4v5.334h1.333V20c-1.593 0-3.022-.698-4-1.806C23.02 19.302 21.59 20 19.998 20c-1.593 0-3.022-.698-4-1.806zm9.33 15.14h2.667c1.472 0 2.666-1.195 2.666-2.667V19.289c2.032-1.176 3.173-3.646 2.452-6.116l-1.451-4.978c-.264-.906-1.094-1.528-2.037-1.528H10.368c-.942 0-1.772.622-2.036 1.528L6.88 13.173c-.72 2.47.42 4.94 2.453 6.116v11.378c0 1.472 1.193 2.666 2.666 2.666h13.33zm-1.332-2.667v-5.334c0-.736-.597-1.333-1.333-1.333s-1.333.597-1.333 1.333v5.334h2.666zm-5.332 0v-2h-6.665v2h6.665zm6.665-16V9.333h3.888l1.337 4.587c.498 1.707-.782 3.413-2.56 3.413-1.472 0-2.665-1.194-2.665-2.666zM17.33 9.333h5.332v5.334c0 1.472-1.194 2.666-2.666 2.666-1.473 0-2.666-1.194-2.666-2.666V9.333z" transform="translate(24 24)"/>
        </g>
    </g>
</svg>
