<svg xmlns="http://www.w3.org/2000/svg" width="24" height="24" viewBox="0 0 24 24">
    <g fill="none" fill-rule="evenodd">
        <g>
            <g>
                <g>
                    <g>
                        <g>
                            <path d="M0 0H24V24H0z" transform="translate(-1352 -116) translate(290 104) translate(930) translate(24 12) translate(108)"/>
                            <g fill="#FFF">
                                <path d="M.293.293c-.39.39-.39 1.024 0 1.414l6 6c.39.39 1.024.39 1.414 0l6-6c.39-.39.39-1.024 0-1.414-.39-.39-1.024-.39-1.414 0L7 5.586 1.707.293c-.39-.39-1.024-.39-1.414 0z" transform="translate(-1352 -116) translate(290 104) translate(930) translate(24 12) translate(108) translate(5 8)"/>
                            </g>
                        </g>
                    </g>
                </g>
            </g>
        </g>
    </g>
</svg>
