<svg xmlns="http://www.w3.org/2000/svg" width="40" height="40" viewBox="0 0 40 40">
    <defs>
        <filter id="u3zzrcr8ua">
            <feColorMatrix in="SourceGraphic" values="0 0 0 0 0.098039 0 0 0 0 0.294118 0 0 0 0 0.941176 0 0 0 1.000000 0"/>
        </filter>
    </defs>
    <g fill="none" fill-rule="evenodd" filter="url(#u3zzrcr8ua)" transform="translate(-24 -24)">
        <g>
            <path d="M0 0H40V40H0z" transform="translate(24 24)"/>
            <path fill="#186EDB" d="M32.7 8.522c.394.23.633.637.633 1.074v17.685c0 .478-.285.916-.737 1.13l-8 3.789c-.375.178-.817.178-1.192 0L16 28.693 8.596 32.2c-.413.196-.904.175-1.297-.055-.393-.23-.632-.637-.632-1.075V12.123c0-.544.367-1.027.911-1.199l8-2.526c.336-.106.702-.081 1.018.069L24 11.974l7.404-3.507c.413-.196.904-.175 1.297.055zm-10.033 5.645l-5.334-2.527V26.5l5.334 2.526v-14.86zm2.666 14.86l5.334-2.527V11.64l-5.334 2.527v14.86zM14.667 26.5V11.349l-5.334 1.684v15.993l5.334-2.526z" transform="translate(24 24)"/>
        </g>
    </g>
</svg>
