<svg xmlns="http://www.w3.org/2000/svg" width="24" height="24" viewBox="0 0 24 24">
    <g fill="none" fill-rule="evenodd">
        <rect width="24" height="24" rx="3"/>
        <path fill="#6D7379" d="M4.5 10.5c0 3.314 2.686 6 6 6 1.385 0 2.661-.47 3.677-1.258.038.08.09.157.157.224l4.8 4.8c.313.312.82.312 1.132 0 .312-.313.312-.82 0-1.132l-4.8-4.8c-.067-.067-.143-.12-.224-.157.788-1.016 1.258-2.292 1.258-3.677 0-3.314-2.686-6-6-6s-6 2.686-6 6zm1.6 0c0-2.43 1.97-4.4 4.4-4.4 2.43 0 4.4 1.97 4.4 4.4 0 2.43-1.97 4.4-4.4 4.4-2.43 0-4.4-1.97-4.4-4.4z"/>
    </g>
</svg>
