<svg xmlns="http://www.w3.org/2000/svg" width="40" height="40" viewBox="0 0 40 40">
    <defs>
        <filter id="hg4kbhp3wa">
            <feColorMatrix in="SourceGraphic" values="0 0 0 0 0.098039 0 0 0 0 0.294118 0 0 0 0 0.941176 0 0 0 1.000000 0"/>
        </filter>
    </defs>
    <g fill="none" fill-rule="evenodd" filter="url(#hg4kbhp3wa)" transform="translate(-24 -24)">
        <path fill="#186EDB" d="M52.333 53.333H51c0 2.21-1.79 4-4 4H36.333c-2.209 0-4-1.79-4-4V38.667c0-2.21 1.791-4 4-4 0-2.21 1.791-4 4-4h12c2.21 0 4 1.79 4 4v14.666c0 2.21-1.79 4-4 4zm-2.666-2.666H40.333c-.736 0-1.333-.597-1.333-1.334V34.667c0-.737.597-1.334 1.333-1.334h12c.737 0 1.334.597 1.334 1.334v14.666c0 .737-.597 1.334-1.334 1.334h-2.666zM35 38.667c0-.737.597-1.334 1.333-1.334v12c0 2.21 1.791 4 4 4h8c0 .737-.597 1.334-1.333 1.334H36.333c-.736 0-1.333-.597-1.333-1.334V38.667zM43 36c-.736 0-1.333.597-1.333 1.333 0 .737.597 1.334 1.333 1.334h6.667c.736 0 1.333-.597 1.333-1.334 0-.736-.597-1.333-1.333-1.333H43zm-1.333 6c0-.736.597-1.333 1.333-1.333h6.667c.736 0 1.333.597 1.333 1.333s-.597 1.333-1.333 1.333H43c-.736 0-1.333-.597-1.333-1.333zM43 45.333c-.736 0-1.333.597-1.333 1.334 0 .736.597 1.333 1.333 1.333h6.667c.736 0 1.333-.597 1.333-1.333 0-.737-.597-1.334-1.333-1.334H43z"/>
    </g>
</svg>
