<svg xmlns="http://www.w3.org/2000/svg" width="40" height="40" viewBox="0 0 40 40">
    <defs>
        <filter id="3jekacyska">
            <feColorMatrix in="SourceGraphic" values="0 0 0 0 0.098039 0 0 0 0 0.294118 0 0 0 0 0.941176 0 0 0 1.000000 0"/>
        </filter>
    </defs>
    <g fill="none" fill-rule="evenodd" filter="url(#3jekacyska)" transform="translate(-24 -24)">
        <g>
            <path d="M0 0H40V40H0z" transform="translate(24 24)"/>
            <path fill="#186EDB" d="M13 6.667c.736 0 1.333.597 1.333 1.333v1.422c.068.058.144.122.228.19.403.327.96.72 1.601 1.023 1.272.603 2.658.78 3.984-.326 2.144-1.787 4.453-1.9 6.229-1.526 1.733.365 3.011 1.196 3.328 1.415.421.29.63.753.63 1.203v9.363c0 1.368-1.513 2.009-2.517 1.361-1.04-.67-3.485-1.832-5.962.233-1.218 1.015-2.5 1.464-3.747 1.506-1.222.04-2.32-.313-3.203-.755-.199-.1-.39-.204-.57-.312V32c0 .736-.598 1.333-1.334 1.333-.736 0-1.333-.597-1.333-1.333V8c0-.736.597-1.333 1.333-1.333zm1.333 12.794v-6.776c.217.125.447.247.688.36 1.788.847 4.403 1.338 6.833-.687 1.364-1.138 2.777-1.217 3.971-.966.762.16 1.412.454 1.842.686v6.995c-1.84-.717-4.689-1.124-7.52 1.236-.783.652-1.5.869-2.129.89-.653.021-1.305-.167-1.922-.475-.616-.308-1.145-.71-1.527-1.047-.088-.078-.167-.15-.236-.216z" transform="translate(24 24)"/>
        </g>
    </g>
</svg>
