<svg xmlns="http://www.w3.org/2000/svg" width="40" height="40" viewBox="0 0 40 40">
    <defs>
        <filter id="jsbbr94h9a">
            <feColorMatrix in="SourceGraphic" values="0 0 0 0 0.098039 0 0 0 0 0.294118 0 0 0 0 0.941176 0 0 0 1.000000 0"/>
        </filter>
    </defs>
    <g fill="none" fill-rule="evenodd" filter="url(#jsbbr94h9a)" transform="translate(-24 -24)">
        <g>
            <path d="M0 0H40V40H0z" transform="translate(24 24)"/>
            <path fill="#186EDB" d="M29.333 10H10.667c-2.21 0-4 1.79-4 4v10.667c0 2.209 1.79 4 4 4h18.666c2.21 0 4-1.791 4-4V14c0-2.21-1.79-4-4-4zm-20 13.333v1.334c0 .736.597 1.333 1.334 1.333h18.666c.737 0 1.334-.597 1.334-1.333V14c0-.736-.597-1.333-1.334-1.333H10.667c-.737 0-1.334.597-1.334 1.333v1.333H12c1.473 0 2.667 1.194 2.667 2.667v2.667c0 1.472-1.194 2.666-2.667 2.666H9.333zm0-5.333v2.667H12V18H9.333zm9.334-2.667c-.737 0-1.334.597-1.334 1.334 0 .736.597 1.333 1.334 1.333h6.666c.737 0 1.334-.597 1.334-1.333 0-.737-.597-1.334-1.334-1.334h-6.666zm-1.334 5.334c0-.737.597-1.334 1.334-1.334h4c.736 0 1.333.597 1.333 1.334 0 .736-.597 1.333-1.333 1.333h-4c-.737 0-1.334-.597-1.334-1.333z" transform="translate(24 24)"/>
        </g>
    </g>
</svg>
