<svg xmlns="http://www.w3.org/2000/svg" width="24" height="24" viewBox="0 0 24 24">
    <defs>
        <filter id="37l7ufj6xa">
            <feColorMatrix in="SourceGraphic" values="0 0 0 0 0.098039 0 0 0 0 0.294118 0 0 0 0 0.941176 0 0 0 1.000000 0"/>
        </filter>
    </defs>
    <g fill="none" fill-rule="evenodd" filter="url(#37l7ufj6xa)">
        <path d="M0 0H24V24H0z"/>
        <path fill="#84829E" d="M15.727 7.998c.332.29.366.796.075 1.129-.29.332-.796.366-1.129.075L12.8 7.563V15.4c0 .442-.358.8-.8.8-.442 0-.8-.358-.8-.8V7.563l-1.873 1.64c-.333.29-.838.256-1.13-.076-.29-.333-.256-.838.076-1.13l3.2-2.8c.302-.263.752-.263 1.054 0l3.2 2.8zM5.6 15.4c0-.442-.358-.8-.8-.8-.442 0-.8.358-.8.8v2.4c0 .884.716 1.6 1.6 1.6h12.8c.884 0 1.6-.716 1.6-1.6v-2.4c0-.442-.358-.8-.8-.8-.442 0-.8.358-.8.8v2.4H5.6v-2.4z"/>
    </g>
</svg>
