<svg xmlns="http://www.w3.org/2000/svg" width="24" height="24" viewBox="0 0 24 24">
    <g fill="none" fill-rule="evenodd">
        <g>
            <g>
                <g>
                    <g>
                        <path d="M0 0H24V24H0z" transform="translate(-1216 -117) translate(290 104) translate(902 1) translate(24 12)"/>
                        <g fill="#FFF">
                            <path d="M15.699.285c.395.385.402 1.019.017 1.414l-9.766 10c-.197.201-.47.31-.751.3-.281-.01-.546-.138-.728-.353l-4.234-5c-.357-.421-.305-1.052.117-1.41.421-.356 1.052-.304 1.41.118l3.523 4.16L14.285.302c.385-.395 1.019-.402 1.414-.016z" transform="translate(-1216 -117) translate(290 104) translate(902 1) translate(24 12) translate(4 6)"/>
                        </g>
                    </g>
                </g>
            </g>
        </g>
    </g>
</svg>
