<svg xmlns="http://www.w3.org/2000/svg" width="24" height="24" viewBox="0 0 24 24">
    <defs>
        <filter id="vx6bxm1bca">
            <feColorMatrix in="SourceGraphic" values="0 0 0 0 0.286275 0 0 0 0 0.313725 0 0 0 0 0.341176 0 0 0 1.000000 0"/>
        </filter>
    </defs>
    <g fill="none" fill-rule="evenodd">
        <g>
            <g filter="url(#vx6bxm1bca)" transform="translate(-1209 -111) translate(1209 104)">
                <g>
                    <path d="M0 0H24V24H0z" transform="translate(0 7)"/>
                    <g fill="#000">
                        <path d="M15.699.285c.395.385.402 1.019.017 1.414l-9.766 10c-.197.201-.47.31-.751.3-.281-.01-.546-.138-.728-.353l-4.234-5c-.357-.421-.305-1.052.117-1.41.421-.356 1.052-.304 1.41.118l3.523 4.16L14.285.302c.385-.395 1.019-.402 1.414-.016z" transform="translate(0 7) translate(4 6)"/>
                    </g>
                </g>
            </g>
        </g>
    </g>
</svg>
